# xmcd CD database file
#
# Track frame offsets:
#	150
#	21827
#	43639
#	62280
#	82877
#	102242
#	121440
#	143397
#
# Disc length: 2191 seconds
#
# Revision: 0
# Processed by: cddbd v1.5.2PL0 Copyright (c) Steve Scherf et al.
# Submitted via: CDex 1.70beta2
#
DISCID=58088d08
DTITLE=Eugen Cicero - Balkáni Rapszódiák jazz zongorára
DYEAR=1970
DGENRE=Jazz
TTITLE0=Én vagyok a falu rossza
TTITLE1=Ritka búza, ritka árpa, ritka rozs
TTITLE2=Memories of Clausenburg
TTITLE3=Erdő, erdő, sűrű erdő
TTITLE4=Csak egy kislány van a világon
TTITLE5=Tamo Daleko
TTITLE6=Akácos út
TTITLE7=Repülj szán
EXTD=YEAR: 1970
EXTT0=
EXTT1=
EXTT2=
EXTT3=
EXTT4=
EXTT5=
EXTT6=
EXTT7=
PLAYORDER=
